# xmcd
#
# Track frame offsets:
#	150
#	16204
#	31471
#	48557
#	64492
#	80727
#	96360
#	109244
#	125343
#	140532
#
# Disc length: 2067 seconds
#
# Revision: 0
# Processed by: cddbd v1.5.2PL0 Copyright (c) Steve Scherf et al.
# Submitted via: EasyCDDAExtractor 16.0.6.1
#
DISCID=8f08110a
DTITLE=Συλλογικός δίσκος - Ιστορία ρεμπέτικου και λαϊκού 08-2
DYEAR=2007
DGENRE=Ποικίλη
TTITLE0=Σεβάς Χανούμ-Χιώτης Μανώλης - Το φτωχοκάλυβο [Μ. Χιώτης]
TTITLE1=Νίνου Μαρίκα-Τσιτσάνης Βασίλης - Τι σήμερα, τι αύριο, τι τώρα [Β. Τσιτ
TTITLE1=σάνης-Γερ. Τσάκαλος]
TTITLE2=Τσαουσάκης Πρόδρομος-Γρίλλη Μαρία - Σαν σήμερα, σαν σήμερα [Γ. Ζαμπέτα
TTITLE2=ς]
TTITLE3=Κυριαζής Γιάννης-Ρουμελιώτης Δημήτρης - Τι όμορφη που είσαι όταν κλαις
TTITLE3=[Σ.Χρυσίνης-Χ.Κολοκοτρώνης]
TTITLE4=Νίνου Μαρίκα-Τσιτσάνης Βασίλης - Παίξτε μπουζούκια [Βασ. Τσιτσάνης]
TTITLE5=Τζουανάκος Σταύρος-Πλέσσας Σταύρος - Μα είναι και Θεός [Στ. Τζουανάκος
TTITLE5=Ε. Παπαγιαννοπούλου]
TTITLE6=Χρυσάφη Άννα-Γαβαλάς Πάνος - Λίγα ψίχουλα αγάπης σού γυρεύω [Στ. Τζουα
TTITLE6=νάκος-Κ. Βίρβος]
TTITLE7=Μπέλλου Σωτηρία - Περιπλανώμενη ζωή [Β. Τσιτσάνης-Κ. Βίρβος]
TTITLE8=Μπίνης Τάκης-Νίνου Μαρίκα - Θα κάνω ντου βρε πονηρή [Β. Τσιτσάνης-Κ. Β
TTITLE8=ίρβος]
TTITLE9=Νίνου Μαρίκα - Ζαΐρα [Β. Τσιτσάνης-Κ. Βίρβος]
EXTD=
EXTT0=
EXTT1=
EXTT2=
EXTT3=
EXTT4=
EXTT5=
EXTT6=
EXTT7=
EXTT8=
EXTT9=
PLAYORDER=
